<svg xmlns="http://www.w3.org/2000/svg" width="18" height="18" viewBox="0 0 18 18" fill="none">
  <path d="M9.25879 16.0057L8.17129 15.0307C6.90879 13.8932 5.86504 12.9119 5.04004 12.0869C4.21504 11.2619 3.55879 10.5213 3.07129 9.86504C2.58379 9.20879 2.24316 8.60566 2.04941 8.05566C1.85566 7.50566 1.75879 6.94316 1.75879 6.36816C1.75879 5.19316 2.15254 4.21191 2.94004 3.42441C3.72754 2.63691 4.70879 2.24316 5.88379 2.24316C6.53379 2.24316 7.15254 2.38066 7.74004 2.65566C8.32754 2.93066 8.83379 3.31816 9.25879 3.81816C9.68379 3.31816 10.19 2.93066 10.7775 2.65566C11.365 2.38066 11.9838 2.24316 12.6338 2.24316C13.8088 2.24316 14.79 2.63691 15.5775 3.42441C16.365 4.21191 16.7588 5.19316 16.7588 6.36816C16.7588 6.94316 16.6619 7.50566 16.4682 8.05566C16.2744 8.60566 15.9338 9.20879 15.4463 9.86504C14.9588 10.5213 14.3025 11.2619 13.4775 12.0869C12.6525 12.9119 11.6088 13.8932 10.3463 15.0307L9.25879 16.0057ZM9.25879 13.9807C10.4588 12.9057 11.4463 11.9838 12.2213 11.215C12.9963 10.4463 13.6088 9.77754 14.0588 9.20879C14.5088 8.64004 14.8213 8.13379 14.9963 7.69004C15.1713 7.24629 15.2588 6.80566 15.2588 6.36816C15.2588 5.61816 15.0088 4.99316 14.5088 4.49316C14.0088 3.99316 13.3838 3.74316 12.6338 3.74316C12.0463 3.74316 11.5025 3.90879 11.0025 4.24004C10.5025 4.57129 10.1588 4.99316 9.97129 5.50566H8.54629C8.35879 4.99316 8.01504 4.57129 7.51504 4.24004C7.01504 3.90879 6.47129 3.74316 5.88379 3.74316C5.13379 3.74316 4.50879 3.99316 4.00879 4.49316C3.50879 4.99316 3.25879 5.61816 3.25879 6.36816C3.25879 6.80566 3.34629 7.24629 3.52129 7.69004C3.69629 8.13379 4.00879 8.64004 4.45879 9.20879C4.90879 9.77754 5.52129 10.4463 6.29629 11.215C7.07129 11.9838 8.05879 12.9057 9.25879 13.9807Z" fill="#FFB68D"/>
</svg>